<mxfile host="app.diagrams.net" modified="2022-04-05T10:04:06.918Z" agent="5.0 (Macintosh; Intel Mac OS X 10_15_7) AppleWebKit/537.36 (KHTML, like Gecko) Chrome/99.0.4844.83 Safari/537.36" etag="pVXTlzBnSSsSM5-p1Fzq" version="17.4.0" type="github">
  <diagram id="WiWz7q4bYspyMZFVrQvD" name="Page-1">
    <mxGraphModel dx="1395" dy="722" grid="0" gridSize="10" guides="1" tooltips="1" connect="1" arrows="1" fold="1" page="0" pageScale="1" pageWidth="827" pageHeight="1169" math="0" shadow="0">
      <root>
        <mxCell id="0" />
        <mxCell id="1" parent="0" />
        <mxCell id="hHCwbgIBu2njAsdtUpb5-46" style="edgeStyle=orthogonalEdgeStyle;curved=1;rounded=0;orthogonalLoop=1;jettySize=auto;html=1;exitX=0.75;exitY=0.25;exitDx=0;exitDy=0;exitPerimeter=0;fontSize=14;" edge="1" parent="1" source="hHCwbgIBu2njAsdtUpb5-67" target="hHCwbgIBu2njAsdtUpb5-37">
          <mxGeometry relative="1" as="geometry">
            <mxPoint x="160" y="460" as="sourcePoint" />
          </mxGeometry>
        </mxCell>
        <mxCell id="hHCwbgIBu2njAsdtUpb5-47" value="1. 扫描 Images" style="edgeLabel;html=1;align=center;verticalAlign=middle;resizable=0;points=[];fontSize=14;" vertex="1" connectable="0" parent="hHCwbgIBu2njAsdtUpb5-46">
          <mxGeometry x="-0.1517" y="-4" relative="1" as="geometry">
            <mxPoint as="offset" />
          </mxGeometry>
        </mxCell>
        <mxCell id="hHCwbgIBu2njAsdtUpb5-4" value="" style="ellipse;whiteSpace=wrap;html=1;strokeWidth=2;fillWeight=2;hachureGap=8;fillColor=#990000;fillStyle=dots;sketch=1;" vertex="1" parent="1">
          <mxGeometry x="860" y="357.47" width="120" height="60" as="geometry" />
        </mxCell>
        <mxCell id="hHCwbgIBu2njAsdtUpb5-60" style="edgeStyle=orthogonalEdgeStyle;curved=1;rounded=0;orthogonalLoop=1;jettySize=auto;html=1;exitX=1;exitY=0;exitDx=0;exitDy=0;entryX=0.925;entryY=0.975;entryDx=0;entryDy=0;fontSize=14;entryPerimeter=0;" edge="1" parent="1" source="hHCwbgIBu2njAsdtUpb5-5" target="hHCwbgIBu2njAsdtUpb5-15">
          <mxGeometry relative="1" as="geometry" />
        </mxCell>
        <mxCell id="hHCwbgIBu2njAsdtUpb5-64" style="edgeStyle=orthogonalEdgeStyle;curved=1;rounded=0;orthogonalLoop=1;jettySize=auto;html=1;exitX=0;exitY=1;exitDx=0;exitDy=0;entryX=1;entryY=0.75;entryDx=0;entryDy=0;fontSize=14;" edge="1" parent="1" source="hHCwbgIBu2njAsdtUpb5-5" target="hHCwbgIBu2njAsdtUpb5-37">
          <mxGeometry relative="1" as="geometry">
            <Array as="points">
              <mxPoint x="845" y="590" />
              <mxPoint x="643" y="590" />
              <mxPoint x="643" y="495" />
            </Array>
          </mxGeometry>
        </mxCell>
        <mxCell id="hHCwbgIBu2njAsdtUpb5-5" value="" style="rhombus;whiteSpace=wrap;html=1;strokeWidth=2;fillWeight=-1;hachureGap=8;fillStyle=cross-hatch;fillColor=#006600;sketch=1;" vertex="1" parent="1">
          <mxGeometry x="815" y="537.5" width="120" height="60" as="geometry" />
        </mxCell>
        <mxCell id="hHCwbgIBu2njAsdtUpb5-50" style="edgeStyle=orthogonalEdgeStyle;curved=1;rounded=0;orthogonalLoop=1;jettySize=auto;html=1;exitX=1;exitY=0.5;exitDx=0;exitDy=0;entryX=0.25;entryY=1;entryDx=0;entryDy=0;fontSize=14;" edge="1" parent="1" source="hHCwbgIBu2njAsdtUpb5-6" target="hHCwbgIBu2njAsdtUpb5-11">
          <mxGeometry relative="1" as="geometry">
            <Array as="points">
              <mxPoint x="935" y="652.5" />
              <mxPoint x="1140" y="652.5" />
              <mxPoint x="1140" y="682.5" />
            </Array>
          </mxGeometry>
        </mxCell>
        <mxCell id="hHCwbgIBu2njAsdtUpb5-51" value="5. 扫描指定 Images" style="edgeLabel;html=1;align=center;verticalAlign=middle;resizable=0;points=[];fontSize=14;" vertex="1" connectable="0" parent="hHCwbgIBu2njAsdtUpb5-50">
          <mxGeometry x="-0.2226" y="1" relative="1" as="geometry">
            <mxPoint as="offset" />
          </mxGeometry>
        </mxCell>
        <mxCell id="hHCwbgIBu2njAsdtUpb5-54" style="edgeStyle=orthogonalEdgeStyle;curved=1;rounded=0;orthogonalLoop=1;jettySize=auto;html=1;exitX=0;exitY=0.75;exitDx=0;exitDy=0;fontSize=14;" edge="1" parent="1" source="hHCwbgIBu2njAsdtUpb5-6">
          <mxGeometry relative="1" as="geometry">
            <mxPoint x="410" y="520" as="targetPoint" />
          </mxGeometry>
        </mxCell>
        <mxCell id="hHCwbgIBu2njAsdtUpb5-55" value="7. 返回&amp;nbsp;&lt;span style=&quot;background-color: rgb(248 , 249 , 250)&quot;&gt;Plugin C&amp;nbsp;&lt;/span&gt;&lt;br&gt;扫描结果" style="edgeLabel;html=1;align=center;verticalAlign=middle;resizable=0;points=[];fontSize=14;" vertex="1" connectable="0" parent="hHCwbgIBu2njAsdtUpb5-54">
          <mxGeometry x="0.2" y="-25" relative="1" as="geometry">
            <mxPoint x="117" y="10" as="offset" />
          </mxGeometry>
        </mxCell>
        <mxCell id="hHCwbgIBu2njAsdtUpb5-6" value="" style="rounded=1;whiteSpace=wrap;html=1;strokeWidth=2;fillWeight=4;hachureGap=8;hachureAngle=45;fillColor=#1ba1e2;sketch=1;" vertex="1" parent="1">
          <mxGeometry x="815" y="657.5" width="120" height="60" as="geometry" />
        </mxCell>
        <mxCell id="hHCwbgIBu2njAsdtUpb5-7" value="" style="html=1;whiteSpace=wrap;shape=isoCube2;backgroundOutline=1;isoAngle=15;" vertex="1" parent="1">
          <mxGeometry x="1127.5" y="335" width="90" height="100" as="geometry" />
        </mxCell>
        <mxCell id="hHCwbgIBu2njAsdtUpb5-52" style="edgeStyle=orthogonalEdgeStyle;curved=1;rounded=0;orthogonalLoop=1;jettySize=auto;html=1;exitX=0.75;exitY=1;exitDx=0;exitDy=0;entryX=1;entryY=0.75;entryDx=0;entryDy=0;fontSize=14;" edge="1" parent="1" source="hHCwbgIBu2njAsdtUpb5-11" target="hHCwbgIBu2njAsdtUpb5-6">
          <mxGeometry relative="1" as="geometry" />
        </mxCell>
        <mxCell id="hHCwbgIBu2njAsdtUpb5-53" value="6. 扫描结果" style="edgeLabel;html=1;align=center;verticalAlign=middle;resizable=0;points=[];fontSize=14;" vertex="1" connectable="0" parent="hHCwbgIBu2njAsdtUpb5-52">
          <mxGeometry x="0.3584" y="5" relative="1" as="geometry">
            <mxPoint as="offset" />
          </mxGeometry>
        </mxCell>
        <mxCell id="hHCwbgIBu2njAsdtUpb5-11" value="" style="verticalLabelPosition=middle;verticalAlign=middle;html=1;shape=trapezoid;perimeter=trapezoidPerimeter;whiteSpace=wrap;size=0.23;arcSize=10;flipV=1;labelPosition=center;align=center;direction=south;" vertex="1" parent="1">
          <mxGeometry x="1151.25" y="657.5" width="30" height="100" as="geometry" />
        </mxCell>
        <mxCell id="hHCwbgIBu2njAsdtUpb5-12" value="" style="verticalLabelPosition=middle;verticalAlign=middle;html=1;shape=trapezoid;perimeter=trapezoidPerimeter;whiteSpace=wrap;size=0.23;arcSize=10;flipV=1;labelPosition=center;align=center;direction=north;" vertex="1" parent="1">
          <mxGeometry x="1186.25" y="657.5" width="30" height="100" as="geometry" />
        </mxCell>
        <mxCell id="hHCwbgIBu2njAsdtUpb5-13" value="" style="html=1;whiteSpace=wrap;shape=isoCube2;backgroundOutline=1;isoAngle=15;" vertex="1" parent="1">
          <mxGeometry x="1120" y="405" width="90" height="100" as="geometry" />
        </mxCell>
        <mxCell id="hHCwbgIBu2njAsdtUpb5-14" value="" style="html=1;whiteSpace=wrap;shape=isoCube2;backgroundOutline=1;isoAngle=15;" vertex="1" parent="1">
          <mxGeometry x="1191.25" y="375" width="90" height="100" as="geometry" />
        </mxCell>
        <mxCell id="hHCwbgIBu2njAsdtUpb5-16" value="" style="verticalLabelPosition=middle;verticalAlign=middle;html=1;shape=trapezoid;perimeter=trapezoidPerimeter;whiteSpace=wrap;size=0.23;arcSize=10;flipV=1;labelPosition=center;align=center;direction=north;" vertex="1" parent="1">
          <mxGeometry x="1241.25" y="617.5" width="30" height="100" as="geometry" />
        </mxCell>
        <mxCell id="hHCwbgIBu2njAsdtUpb5-24" value="" style="ellipse;whiteSpace=wrap;html=1;strokeWidth=2;fillWeight=2;hachureGap=8;fillColor=#990000;fillStyle=dots;sketch=1;" vertex="1" parent="1">
          <mxGeometry x="1155.62" y="692.5" width="21.25" height="30" as="geometry" />
        </mxCell>
        <mxCell id="hHCwbgIBu2njAsdtUpb5-25" value="" style="rounded=1;whiteSpace=wrap;html=1;strokeWidth=2;fillWeight=4;hachureGap=8;hachureAngle=45;fillColor=#1ba1e2;sketch=1;" vertex="1" parent="1">
          <mxGeometry x="1217.5" y="385" width="40" height="20" as="geometry" />
        </mxCell>
        <mxCell id="hHCwbgIBu2njAsdtUpb5-26" value="" style="rounded=1;whiteSpace=wrap;html=1;strokeWidth=2;fillWeight=4;hachureGap=8;hachureAngle=45;fillColor=#1ba1e2;sketch=1;" vertex="1" parent="1">
          <mxGeometry x="1246.25" y="652.5" width="20" height="30" as="geometry" />
        </mxCell>
        <mxCell id="hHCwbgIBu2njAsdtUpb5-27" value="" style="rhombus;whiteSpace=wrap;html=1;strokeWidth=2;fillWeight=-1;hachureGap=8;fillStyle=cross-hatch;fillColor=#006600;sketch=1;" vertex="1" parent="1">
          <mxGeometry x="1120" y="455" width="40" height="30" as="geometry" />
        </mxCell>
        <mxCell id="hHCwbgIBu2njAsdtUpb5-28" value="" style="rhombus;whiteSpace=wrap;html=1;strokeWidth=2;fillWeight=-1;hachureGap=8;fillStyle=cross-hatch;fillColor=#006600;sketch=1;" vertex="1" parent="1">
          <mxGeometry x="1192.5" y="425" width="40" height="30" as="geometry" />
        </mxCell>
        <mxCell id="hHCwbgIBu2njAsdtUpb5-29" value="&lt;font style=&quot;font-size: 14px&quot;&gt;Containers&lt;/font&gt;" style="text;html=1;strokeColor=none;fillColor=none;align=center;verticalAlign=middle;whiteSpace=wrap;rounded=0;" vertex="1" parent="1">
          <mxGeometry x="1226.25" y="315" width="85" height="30" as="geometry" />
        </mxCell>
        <mxCell id="hHCwbgIBu2njAsdtUpb5-30" value="&lt;font style=&quot;font-size: 14px&quot;&gt;Images&lt;/font&gt;" style="text;html=1;strokeColor=none;fillColor=none;align=center;verticalAlign=middle;whiteSpace=wrap;rounded=0;" vertex="1" parent="1">
          <mxGeometry x="1236.25" y="727.5" width="85" height="30" as="geometry" />
        </mxCell>
        <mxCell id="hHCwbgIBu2njAsdtUpb5-31" value="&lt;font style=&quot;font-size: 14px&quot;&gt;Plugin A&lt;/font&gt;" style="text;html=1;strokeColor=none;fillColor=none;align=center;verticalAlign=middle;whiteSpace=wrap;rounded=0;" vertex="1" parent="1">
          <mxGeometry x="877.5" y="427.47" width="85" height="30" as="geometry" />
        </mxCell>
        <mxCell id="hHCwbgIBu2njAsdtUpb5-32" value="&lt;font style=&quot;font-size: 14px&quot;&gt;Plugin B&lt;/font&gt;" style="text;html=1;strokeColor=none;fillColor=none;align=center;verticalAlign=middle;whiteSpace=wrap;rounded=0;" vertex="1" parent="1">
          <mxGeometry x="832.5" y="607.5" width="85" height="30" as="geometry" />
        </mxCell>
        <mxCell id="hHCwbgIBu2njAsdtUpb5-33" value="&lt;font style=&quot;font-size: 14px&quot;&gt;Plugin C&lt;/font&gt;" style="text;html=1;strokeColor=none;fillColor=none;align=center;verticalAlign=middle;whiteSpace=wrap;rounded=0;" vertex="1" parent="1">
          <mxGeometry x="832.5" y="727.5" width="85" height="30" as="geometry" />
        </mxCell>
        <mxCell id="hHCwbgIBu2njAsdtUpb5-43" style="edgeStyle=orthogonalEdgeStyle;curved=1;rounded=0;orthogonalLoop=1;jettySize=auto;html=1;exitX=0;exitY=0.3;exitDx=0;exitDy=0;entryX=1;entryY=0;entryDx=0;entryDy=0;fontSize=14;" edge="1" parent="1" source="hHCwbgIBu2njAsdtUpb5-34" target="hHCwbgIBu2njAsdtUpb5-37">
          <mxGeometry relative="1" as="geometry" />
        </mxCell>
        <mxCell id="hHCwbgIBu2njAsdtUpb5-44" value="3. 返回 Plugins 列表&lt;br&gt;（B、C）" style="edgeLabel;html=1;align=center;verticalAlign=middle;resizable=0;points=[];fontSize=14;" vertex="1" connectable="0" parent="hHCwbgIBu2njAsdtUpb5-43">
          <mxGeometry x="0.3264" y="2" relative="1" as="geometry">
            <mxPoint as="offset" />
          </mxGeometry>
        </mxCell>
        <mxCell id="hHCwbgIBu2njAsdtUpb5-34" value="Plugins&lt;br&gt;List" style="shape=datastore;whiteSpace=wrap;html=1;fontSize=14;" vertex="1" parent="1">
          <mxGeometry x="730" y="370" width="60" height="60" as="geometry" />
        </mxCell>
        <mxCell id="hHCwbgIBu2njAsdtUpb5-41" style="edgeStyle=orthogonalEdgeStyle;curved=1;rounded=0;orthogonalLoop=1;jettySize=auto;html=1;exitX=1;exitY=0.25;exitDx=0;exitDy=0;entryX=0;entryY=0.7;entryDx=0;entryDy=0;fontSize=14;" edge="1" parent="1" source="hHCwbgIBu2njAsdtUpb5-37" target="hHCwbgIBu2njAsdtUpb5-34">
          <mxGeometry relative="1" as="geometry" />
        </mxCell>
        <mxCell id="hHCwbgIBu2njAsdtUpb5-42" value="2. 枚举 Plugins" style="edgeLabel;html=1;align=center;verticalAlign=middle;resizable=0;points=[];fontSize=14;" vertex="1" connectable="0" parent="hHCwbgIBu2njAsdtUpb5-41">
          <mxGeometry x="-0.2913" y="-1" relative="1" as="geometry">
            <mxPoint x="19" y="-36" as="offset" />
          </mxGeometry>
        </mxCell>
        <mxCell id="hHCwbgIBu2njAsdtUpb5-48" style="edgeStyle=orthogonalEdgeStyle;curved=1;rounded=0;orthogonalLoop=1;jettySize=auto;html=1;exitX=0.75;exitY=1;exitDx=0;exitDy=0;entryX=0;entryY=0.25;entryDx=0;entryDy=0;fontSize=14;" edge="1" parent="1" target="hHCwbgIBu2njAsdtUpb5-6">
          <mxGeometry relative="1" as="geometry">
            <mxPoint x="430" y="485" as="sourcePoint" />
            <mxPoint x="790" y="647.5" as="targetPoint" />
            <Array as="points">
              <mxPoint x="430" y="620" />
              <mxPoint x="815" y="620" />
            </Array>
          </mxGeometry>
        </mxCell>
        <mxCell id="hHCwbgIBu2njAsdtUpb5-49" value="4. 使用 Plugins C 扫描" style="edgeLabel;html=1;align=center;verticalAlign=middle;resizable=0;points=[];fontSize=14;" vertex="1" connectable="0" parent="hHCwbgIBu2njAsdtUpb5-48">
          <mxGeometry x="0.0584" y="5" relative="1" as="geometry">
            <mxPoint x="2" y="7" as="offset" />
          </mxGeometry>
        </mxCell>
        <mxCell id="hHCwbgIBu2njAsdtUpb5-58" style="edgeStyle=orthogonalEdgeStyle;curved=1;rounded=0;orthogonalLoop=1;jettySize=auto;html=1;exitX=1;exitY=0.5;exitDx=0;exitDy=0;entryX=0;entryY=0;entryDx=0;entryDy=0;fontSize=14;" edge="1" parent="1" source="hHCwbgIBu2njAsdtUpb5-37" target="hHCwbgIBu2njAsdtUpb5-5">
          <mxGeometry relative="1" as="geometry" />
        </mxCell>
        <mxCell id="hHCwbgIBu2njAsdtUpb5-66" style="edgeStyle=orthogonalEdgeStyle;curved=1;rounded=0;orthogonalLoop=1;jettySize=auto;html=1;exitX=0;exitY=0.75;exitDx=0;exitDy=0;entryX=1;entryY=0.75;entryDx=0;entryDy=0;fontSize=14;" edge="1" parent="1" source="hHCwbgIBu2njAsdtUpb5-37" target="hHCwbgIBu2njAsdtUpb5-67">
          <mxGeometry relative="1" as="geometry">
            <mxPoint x="190" y="515" as="targetPoint" />
          </mxGeometry>
        </mxCell>
        <mxCell id="hHCwbgIBu2njAsdtUpb5-68" value="12. 返回Host扫描结果&lt;br&gt;（Plugin C）" style="edgeLabel;html=1;align=center;verticalAlign=middle;resizable=0;points=[];fontSize=14;" vertex="1" connectable="0" parent="hHCwbgIBu2njAsdtUpb5-66">
          <mxGeometry x="0.4176" y="-2" relative="1" as="geometry">
            <mxPoint x="29" y="-2" as="offset" />
          </mxGeometry>
        </mxCell>
        <mxCell id="hHCwbgIBu2njAsdtUpb5-37" value="Host" style="icon;html=1;image=img/clipart/Gear_128x128.png;fontSize=14;" vertex="1" parent="1">
          <mxGeometry x="410" y="450" width="60" height="60" as="geometry" />
        </mxCell>
        <mxCell id="hHCwbgIBu2njAsdtUpb5-45" value="" style="rounded=1;whiteSpace=wrap;html=1;strokeWidth=2;fillWeight=4;hachureGap=8;hachureAngle=45;fillColor=#1ba1e2;sketch=1;" vertex="1" parent="1">
          <mxGeometry x="1190" y="697.5" width="20" height="30" as="geometry" />
        </mxCell>
        <mxCell id="hHCwbgIBu2njAsdtUpb5-62" style="edgeStyle=orthogonalEdgeStyle;curved=1;rounded=0;orthogonalLoop=1;jettySize=auto;html=1;exitX=0.25;exitY=1;exitDx=0;exitDy=0;entryX=0.85;entryY=0.675;entryDx=0;entryDy=0;entryPerimeter=0;fontSize=14;" edge="1" parent="1" source="hHCwbgIBu2njAsdtUpb5-15" target="hHCwbgIBu2njAsdtUpb5-5">
          <mxGeometry relative="1" as="geometry" />
        </mxCell>
        <mxCell id="hHCwbgIBu2njAsdtUpb5-15" value="" style="verticalLabelPosition=middle;verticalAlign=middle;html=1;shape=trapezoid;perimeter=trapezoidPerimeter;whiteSpace=wrap;size=0.23;arcSize=10;flipV=1;labelPosition=center;align=center;direction=south;" vertex="1" parent="1">
          <mxGeometry x="1206.25" y="617.5" width="30" height="100" as="geometry" />
        </mxCell>
        <mxCell id="hHCwbgIBu2njAsdtUpb5-56" style="edgeStyle=orthogonalEdgeStyle;curved=1;rounded=0;orthogonalLoop=1;jettySize=auto;html=1;exitX=1;exitY=0;exitDx=0;exitDy=0;entryX=0.233;entryY=0.058;entryDx=0;entryDy=0;entryPerimeter=0;fontSize=14;" edge="1" parent="1" source="hHCwbgIBu2njAsdtUpb5-4" target="hHCwbgIBu2njAsdtUpb5-4">
          <mxGeometry relative="1" as="geometry">
            <Array as="points">
              <mxPoint x="962" y="312.47" />
              <mxPoint x="888" y="312.47" />
            </Array>
          </mxGeometry>
        </mxCell>
        <mxCell id="hHCwbgIBu2njAsdtUpb5-57" value="取消注册到&lt;br&gt;&amp;nbsp;Plugins List 状态" style="edgeLabel;html=1;align=center;verticalAlign=middle;resizable=0;points=[];fontSize=14;" vertex="1" connectable="0" parent="hHCwbgIBu2njAsdtUpb5-56">
          <mxGeometry x="0.0549" y="2" relative="1" as="geometry">
            <mxPoint as="offset" />
          </mxGeometry>
        </mxCell>
        <mxCell id="hHCwbgIBu2njAsdtUpb5-59" value="8. 使用 Plugins B 扫描" style="edgeLabel;html=1;align=center;verticalAlign=middle;resizable=0;points=[];fontSize=14;" vertex="1" connectable="0" parent="1">
          <mxGeometry x="740" y="490" as="geometry" />
        </mxCell>
        <mxCell id="hHCwbgIBu2njAsdtUpb5-61" value="9. 扫描指定 Images" style="edgeLabel;html=1;align=center;verticalAlign=middle;resizable=0;points=[];fontSize=14;" vertex="1" connectable="0" parent="1">
          <mxGeometry x="1040" y="572.5" as="geometry" />
        </mxCell>
        <mxCell id="hHCwbgIBu2njAsdtUpb5-63" value="10. 扫描结果" style="edgeLabel;html=1;align=center;verticalAlign=middle;resizable=0;points=[];fontSize=14;" vertex="1" connectable="0" parent="1">
          <mxGeometry x="960" y="607.5" as="geometry">
            <mxPoint x="6" y="-3" as="offset" />
          </mxGeometry>
        </mxCell>
        <mxCell id="hHCwbgIBu2njAsdtUpb5-65" value="11. 返回&amp;nbsp;&lt;span style=&quot;background-color: rgb(248 , 249 , 250)&quot;&gt;Plugin B&amp;nbsp;&lt;/span&gt;&lt;br&gt;扫描结果" style="edgeLabel;html=1;align=center;verticalAlign=middle;resizable=0;points=[];fontSize=14;" vertex="1" connectable="0" parent="1">
          <mxGeometry x="650" y="550" as="geometry" />
        </mxCell>
        <mxCell id="hHCwbgIBu2njAsdtUpb5-78" style="edgeStyle=orthogonalEdgeStyle;curved=1;rounded=0;orthogonalLoop=1;jettySize=auto;html=1;exitX=0.5;exitY=1;exitDx=0;exitDy=0;entryX=0.5;entryY=1;entryDx=0;entryDy=0;fontSize=14;" edge="1" parent="1" source="hHCwbgIBu2njAsdtUpb5-67" target="hHCwbgIBu2njAsdtUpb5-76">
          <mxGeometry relative="1" as="geometry" />
        </mxCell>
        <mxCell id="hHCwbgIBu2njAsdtUpb5-79" value="13. 干掉 Plugin C 检测出来的安全问题" style="edgeLabel;html=1;align=center;verticalAlign=middle;resizable=0;points=[];fontSize=14;" vertex="1" connectable="0" parent="hHCwbgIBu2njAsdtUpb5-78">
          <mxGeometry x="-0.4241" y="-1" relative="1" as="geometry">
            <mxPoint as="offset" />
          </mxGeometry>
        </mxCell>
        <mxCell id="hHCwbgIBu2njAsdtUpb5-67" value="User" style="shape=actor;whiteSpace=wrap;html=1;fontSize=14;" vertex="1" parent="1">
          <mxGeometry x="90" y="422.5" width="90" height="115" as="geometry" />
        </mxCell>
        <mxCell id="hHCwbgIBu2njAsdtUpb5-69" value="" style="verticalLabelPosition=middle;verticalAlign=middle;html=1;shape=trapezoid;perimeter=trapezoidPerimeter;whiteSpace=wrap;size=0.23;arcSize=10;flipV=1;labelPosition=center;align=center;direction=south;" vertex="1" parent="1">
          <mxGeometry x="102" y="650" width="30" height="100" as="geometry" />
        </mxCell>
        <mxCell id="hHCwbgIBu2njAsdtUpb5-70" value="" style="verticalLabelPosition=middle;verticalAlign=middle;html=1;shape=trapezoid;perimeter=trapezoidPerimeter;whiteSpace=wrap;size=0.23;arcSize=10;flipV=1;labelPosition=center;align=center;direction=north;" vertex="1" parent="1">
          <mxGeometry x="137" y="650" width="30" height="100" as="geometry" />
        </mxCell>
        <mxCell id="hHCwbgIBu2njAsdtUpb5-71" value="" style="verticalLabelPosition=middle;verticalAlign=middle;html=1;shape=trapezoid;perimeter=trapezoidPerimeter;whiteSpace=wrap;size=0.23;arcSize=10;flipV=1;labelPosition=center;align=center;direction=north;" vertex="1" parent="1">
          <mxGeometry x="192" y="610" width="30" height="100" as="geometry" />
        </mxCell>
        <mxCell id="hHCwbgIBu2njAsdtUpb5-72" value="" style="ellipse;whiteSpace=wrap;html=1;strokeWidth=2;fillWeight=2;hachureGap=8;fillColor=#990000;fillStyle=dots;sketch=1;" vertex="1" parent="1">
          <mxGeometry x="106.36999999999989" y="685" width="21.25" height="30" as="geometry" />
        </mxCell>
        <mxCell id="hHCwbgIBu2njAsdtUpb5-74" value="&lt;font style=&quot;font-size: 14px&quot;&gt;Images&lt;/font&gt;" style="text;html=1;strokeColor=none;fillColor=none;align=center;verticalAlign=middle;whiteSpace=wrap;rounded=0;" vertex="1" parent="1">
          <mxGeometry x="187" y="720" width="85" height="30" as="geometry" />
        </mxCell>
        <mxCell id="hHCwbgIBu2njAsdtUpb5-76" value="" style="verticalLabelPosition=middle;verticalAlign=middle;html=1;shape=trapezoid;perimeter=trapezoidPerimeter;whiteSpace=wrap;size=0.23;arcSize=10;flipV=1;labelPosition=center;align=center;direction=south;" vertex="1" parent="1">
          <mxGeometry x="157" y="610" width="30" height="100" as="geometry" />
        </mxCell>
      </root>
    </mxGraphModel>
  </diagram>
</mxfile>
